solid pillow_A
  facet normal 0.000000000e+00 0.000000000e+00 1.000000000e+00
    outer loop
      vertex 2.800000000e-02 -1.000000000e-03 4.000000000e-02
      vertex 1.380000000e-01 -1.000000000e-03 4.000000000e-02
      vertex 1.380000000e-01 9.300000000e-02 4.000000000e-02
    endloop
  endfacet
  facet normal 0.000000000e+00 0.000000000e+00 1.000000000e+00
    outer loop
      vertex 2.800000000e-02 -1.000000000e-03 4.000000000e-02
      vertex 1.380000000e-01 9.300000000e-02 4.000000000e-02
      vertex 2.800000000e-02 9.300000000e-02 4.000000000e-02
    endloop
  endfacet
  facet normal 0.000000000e+00 0.000000000e+00 -1.000000000e+00
    outer loop
      vertex 2.800000000e-02 9.300000000e-02 -1.000000000e-03
      vertex 1.380000000e-01 9.300000000e-02 -1.000000000e-03
      vertex 1.380000000e-01 -1.000000000e-03 -1.000000000e-03
    endloop
  endfacet
  facet normal 0.000000000e+00 0.000000000e+00 -1.000000000e+00
    outer loop
      vertex 2.800000000e-02 9.300000000e-02 -1.000000000e-03
      vertex 1.380000000e-01 -1.000000000e-03 -1.000000000e-03
      vertex 2.800000000e-02 -1.000000000e-03 -1.000000000e-03
    endloop
  endfacet
  facet normal 0.000000000e+00 -1.000000000e+00 0.000000000e+00
    outer loop
      vertex 2.800000000e-02 -1.000000000e-03 -1.000000000e-03
      vertex 1.380000000e-01 -1.000000000e-03 -1.000000000e-03
      vertex 1.380000000e-01 -1.000000000e-03 4.000000000e-02
    endloop
  endfacet
  facet normal 0.000000000e+00 -1.000000000e+00 0.000000000e+00
    outer loop
      vertex 2.800000000e-02 -1.000000000e-03 -1.000000000e-03
      vertex 1.380000000e-01 -1.000000000e-03 4.000000000e-02
      vertex 2.800000000e-02 -1.000000000e-03 4.000000000e-02
    endloop
  endfacet
  facet normal 0.000000000e+00 1.000000000e+00 0.000000000e+00
    outer loop
      vertex 1.380000000e-01 9.300000000e-02 -1.000000000e-03
      vertex 2.800000000e-02 9.300000000e-02 -1.000000000e-03
      vertex 2.800000000e-02 9.300000000e-02 4.000000000e-02
    endloop
  endfacet
  facet normal 0.000000000e+00 1.000000000e+00 -0.000000000e+00
    outer loop
      vertex 1.380000000e-01 9.300000000e-02 -1.000000000e-03
      vertex 2.800000000e-02 9.300000000e-02 4.000000000e-02
      vertex 1.380000000e-01 9.300000000e-02 4.000000000e-02
    endloop
  endfacet
  facet normal -1.000000000e+00 0.000000000e+00 0.000000000e+00
    outer loop
      vertex 2.800000000e-02 9.300000000e-02 -1.000000000e-03
      vertex 2.800000000e-02 -1.000000000e-03 -1.000000000e-03
      vertex 2.800000000e-02 -1.000000000e-03 4.000000000e-02
    endloop
  endfacet
  facet normal -1.000000000e+00 0.000000000e+00 0.000000000e+00
    outer loop
      vertex 2.800000000e-02 9.300000000e-02 -1.000000000e-03
      vertex 2.800000000e-02 -1.000000000e-03 4.000000000e-02
      vertex 2.800000000e-02 9.300000000e-02 4.000000000e-02
    endloop
  endfacet
  facet normal 1.000000000e+00 0.000000000e+00 0.000000000e+00
    outer loop
      vertex 1.380000000e-01 -1.000000000e-03 -1.000000000e-03
      vertex 1.380000000e-01 9.300000000e-02 -1.000000000e-03
      vertex 1.380000000e-01 9.300000000e-02 4.000000000e-02
    endloop
  endfacet
  facet normal 1.000000000e+00 0.000000000e+00 0.000000000e+00
    outer loop
      vertex 1.380000000e-01 -1.000000000e-03 -1.000000000e-03
      vertex 1.380000000e-01 9.300000000e-02 4.000000000e-02
      vertex 1.380000000e-01 -1.000000000e-03 4.000000000e-02
    endloop
  endfacet
endsolid pillow_A
solid pillow_B
  facet normal 0.000000000e+00 0.000000000e+00 1.000000000e+00
    outer loop
      vertex 1.540000000e-01 -1.000000000e-03 4.000000000e-02
      vertex 2.640000000e-01 -1.000000000e-03 4.000000000e-02
      vertex 2.640000000e-01 9.300000000e-02 4.000000000e-02
    endloop
  endfacet
  facet normal 0.000000000e+00 0.000000000e+00 1.000000000e+00
    outer loop
      vertex 1.540000000e-01 -1.000000000e-03 4.000000000e-02
      vertex 2.640000000e-01 9.300000000e-02 4.000000000e-02
      vertex 1.540000000e-01 9.300000000e-02 4.000000000e-02
    endloop
  endfacet
  facet normal 0.000000000e+00 0.000000000e+00 -1.000000000e+00
    outer loop
      vertex 1.540000000e-01 9.300000000e-02 -1.000000000e-03
      vertex 2.640000000e-01 9.300000000e-02 -1.000000000e-03
      vertex 2.640000000e-01 -1.000000000e-03 -1.000000000e-03
    endloop
  endfacet
  facet normal 0.000000000e+00 0.000000000e+00 -1.000000000e+00
    outer loop
      vertex 1.540000000e-01 9.300000000e-02 -1.000000000e-03
      vertex 2.640000000e-01 -1.000000000e-03 -1.000000000e-03
      vertex 1.540000000e-01 -1.000000000e-03 -1.000000000e-03
    endloop
  endfacet
  facet normal 0.000000000e+00 -1.000000000e+00 0.000000000e+00
    outer loop
      vertex 1.540000000e-01 -1.000000000e-03 -1.000000000e-03
      vertex 2.640000000e-01 -1.000000000e-03 -1.000000000e-03
      vertex 2.640000000e-01 -1.000000000e-03 4.000000000e-02
    endloop
  endfacet
  facet normal 0.000000000e+00 -1.000000000e+00 0.000000000e+00
    outer loop
      vertex 1.540000000e-01 -1.000000000e-03 -1.000000000e-03
      vertex 2.640000000e-01 -1.000000000e-03 4.000000000e-02
      vertex 1.540000000e-01 -1.000000000e-03 4.000000000e-02
    endloop
  endfacet
  facet normal 0.000000000e+00 1.000000000e+00 0.000000000e+00
    outer loop
      vertex 2.640000000e-01 9.300000000e-02 -1.000000000e-03
      vertex 1.540000000e-01 9.300000000e-02 -1.000000000e-03
      vertex 1.540000000e-01 9.300000000e-02 4.000000000e-02
    endloop
  endfacet
  facet normal 0.000000000e+00 1.000000000e+00 -0.000000000e+00
    outer loop
      vertex 2.640000000e-01 9.300000000e-02 -1.000000000e-03
      vertex 1.540000000e-01 9.300000000e-02 4.000000000e-02
      vertex 2.640000000e-01 9.300000000e-02 4.000000000e-02
    endloop
  endfacet
  facet normal -1.000000000e+00 0.000000000e+00 0.000000000e+00
    outer loop
      vertex 1.540000000e-01 9.300000000e-02 -1.000000000e-03
      vertex 1.540000000e-01 -1.000000000e-03 -1.000000000e-03
      vertex 1.540000000e-01 -1.000000000e-03 4.000000000e-02
    endloop
  endfacet
  facet normal -1.000000000e+00 0.000000000e+00 0.000000000e+00
    outer loop
      vertex 1.540000000e-01 9.300000000e-02 -1.000000000e-03
      vertex 1.540000000e-01 -1.000000000e-03 4.000000000e-02
      vertex 1.540000000e-01 9.300000000e-02 4.000000000e-02
    endloop
  endfacet
  facet normal 1.000000000e+00 0.000000000e+00 0.000000000e+00
    outer loop
      vertex 2.640000000e-01 -1.000000000e-03 -1.000000000e-03
      vertex 2.640000000e-01 9.300000000e-02 -1.000000000e-03
      vertex 2.640000000e-01 9.300000000e-02 4.000000000e-02
    endloop
  endfacet
  facet normal 1.000000000e+00 0.000000000e+00 0.000000000e+00
    outer loop
      vertex 2.640000000e-01 -1.000000000e-03 -1.000000000e-03
      vertex 2.640000000e-01 9.300000000e-02 4.000000000e-02
      vertex 2.640000000e-01 -1.000000000e-03 4.000000000e-02
    endloop
  endfacet
endsolid pillow_B
solid pillow_C
  facet normal 0.000000000e+00 0.000000000e+00 1.000000000e+00
    outer loop
      vertex 2.800000000e-02 1.090000000e-01 4.000000000e-02
      vertex 1.380000000e-01 1.090000000e-01 4.000000000e-02
      vertex 1.380000000e-01 2.590000000e-01 4.000000000e-02
    endloop
  endfacet
  facet normal 0.000000000e+00 0.000000000e+00 1.000000000e+00
    outer loop
      vertex 2.800000000e-02 1.090000000e-01 4.000000000e-02
      vertex 1.380000000e-01 2.590000000e-01 4.000000000e-02
      vertex 2.800000000e-02 2.590000000e-01 4.000000000e-02
    endloop
  endfacet
  facet normal 0.000000000e+00 0.000000000e+00 -1.000000000e+00
    outer loop
      vertex 2.800000000e-02 2.590000000e-01 -1.000000000e-03
      vertex 1.380000000e-01 2.590000000e-01 -1.000000000e-03
      vertex 1.380000000e-01 1.090000000e-01 -1.000000000e-03
    endloop
  endfacet
  facet normal 0.000000000e+00 0.000000000e+00 -1.000000000e+00
    outer loop
      vertex 2.800000000e-02 2.590000000e-01 -1.000000000e-03
      vertex 1.380000000e-01 1.090000000e-01 -1.000000000e-03
      vertex 2.800000000e-02 1.090000000e-01 -1.000000000e-03
    endloop
  endfacet
  facet normal 0.000000000e+00 -1.000000000e+00 0.000000000e+00
    outer loop
      vertex 2.800000000e-02 1.090000000e-01 -1.000000000e-03
      vertex 1.380000000e-01 1.090000000e-01 -1.000000000e-03
      vertex 1.380000000e-01 1.090000000e-01 4.000000000e-02
    endloop
  endfacet
  facet normal 0.000000000e+00 -1.000000000e+00 0.000000000e+00
    outer loop
      vertex 2.800000000e-02 1.090000000e-01 -1.000000000e-03
      vertex 1.380000000e-01 1.090000000e-01 4.000000000e-02
      vertex 2.800000000e-02 1.090000000e-01 4.000000000e-02
    endloop
  endfacet
  facet normal 0.000000000e+00 1.000000000e+00 0.000000000e+00
    outer loop
      vertex 1.380000000e-01 2.590000000e-01 -1.000000000e-03
      vertex 2.800000000e-02 2.590000000e-01 -1.000000000e-03
      vertex 2.800000000e-02 2.590000000e-01 4.000000000e-02
    endloop
  endfacet
  facet normal 0.000000000e+00 1.000000000e+00 -0.000000000e+00
    outer loop
      vertex 1.380000000e-01 2.590000000e-01 -1.000000000e-03
      vertex 2.800000000e-02 2.590000000e-01 4.000000000e-02
      vertex 1.380000000e-01 2.590000000e-01 4.000000000e-02
    endloop
  endfacet
  facet normal -1.000000000e+00 0.000000000e+00 0.000000000e+00
    outer loop
      vertex 2.800000000e-02 2.590000000e-01 -1.000000000e-03
      vertex 2.800000000e-02 1.090000000e-01 -1.000000000e-03
      vertex 2.800000000e-02 1.090000000e-01 4.000000000e-02
    endloop
  endfacet
  facet normal -1.000000000e+00 0.000000000e+00 0.000000000e+00
    outer loop
      vertex 2.800000000e-02 2.590000000e-01 -1.000000000e-03
      vertex 2.800000000e-02 1.090000000e-01 4.000000000e-02
      vertex 2.800000000e-02 2.590000000e-01 4.000000000e-02
    endloop
  endfacet
  facet normal 1.000000000e+00 0.000000000e+00 0.000000000e+00
    outer loop
      vertex 1.380000000e-01 1.090000000e-01 -1.000000000e-03
      vertex 1.380000000e-01 2.590000000e-01 -1.000000000e-03
      vertex 1.380000000e-01 2.590000000e-01 4.000000000e-02
    endloop
  endfacet
  facet normal 1.000000000e+00 0.000000000e+00 0.000000000e+00
    outer loop
      vertex 1.380000000e-01 1.090000000e-01 -1.000000000e-03
      vertex 1.380000000e-01 2.590000000e-01 4.000000000e-02
      vertex 1.380000000e-01 1.090000000e-01 4.000000000e-02
    endloop
  endfacet
endsolid pillow_C
solid pillow_D
  facet normal 0.000000000e+00 0.000000000e+00 1.000000000e+00
    outer loop
      vertex 1.540000000e-01 1.090000000e-01 4.000000000e-02
      vertex 2.640000000e-01 1.090000000e-01 4.000000000e-02
      vertex 2.640000000e-01 2.590000000e-01 4.000000000e-02
    endloop
  endfacet
  facet normal 0.000000000e+00 0.000000000e+00 1.000000000e+00
    outer loop
      vertex 1.540000000e-01 1.090000000e-01 4.000000000e-02
      vertex 2.640000000e-01 2.590000000e-01 4.000000000e-02
      vertex 1.540000000e-01 2.590000000e-01 4.000000000e-02
    endloop
  endfacet
  facet normal 0.000000000e+00 0.000000000e+00 -1.000000000e+00
    outer loop
      vertex 1.540000000e-01 2.590000000e-01 -1.000000000e-03
      vertex 2.640000000e-01 2.590000000e-01 -1.000000000e-03
      vertex 2.640000000e-01 1.090000000e-01 -1.000000000e-03
    endloop
  endfacet
  facet normal 0.000000000e+00 0.000000000e+00 -1.000000000e+00
    outer loop
      vertex 1.540000000e-01 2.590000000e-01 -1.000000000e-03
      vertex 2.640000000e-01 1.090000000e-01 -1.000000000e-03
      vertex 1.540000000e-01 1.090000000e-01 -1.000000000e-03
    endloop
  endfacet
  facet normal 0.000000000e+00 -1.000000000e+00 0.000000000e+00
    outer loop
      vertex 1.540000000e-01 1.090000000e-01 -1.000000000e-03
      vertex 2.640000000e-01 1.090000000e-01 -1.000000000e-03
      vertex 2.640000000e-01 1.090000000e-01 4.000000000e-02
    endloop
  endfacet
  facet normal 0.000000000e+00 -1.000000000e+00 0.000000000e+00
    outer loop
      vertex 1.540000000e-01 1.090000000e-01 -1.000000000e-03
      vertex 2.640000000e-01 1.090000000e-01 4.000000000e-02
      vertex 1.540000000e-01 1.090000000e-01 4.000000000e-02
    endloop
  endfacet
  facet normal 0.000000000e+00 1.000000000e+00 0.000000000e+00
    outer loop
      vertex 2.640000000e-01 2.590000000e-01 -1.000000000e-03
      vertex 1.540000000e-01 2.590000000e-01 -1.000000000e-03
      vertex 1.540000000e-01 2.590000000e-01 4.000000000e-02
    endloop
  endfacet
  facet normal 0.000000000e+00 1.000000000e+00 -0.000000000e+00
    outer loop
      vertex 2.640000000e-01 2.590000000e-01 -1.000000000e-03
      vertex 1.540000000e-01 2.590000000e-01 4.000000000e-02
      vertex 2.640000000e-01 2.590000000e-01 4.000000000e-02
    endloop
  endfacet
  facet normal -1.000000000e+00 0.000000000e+00 0.000000000e+00
    outer loop
      vertex 1.540000000e-01 2.590000000e-01 -1.000000000e-03
      vertex 1.540000000e-01 1.090000000e-01 -1.000000000e-03
      vertex 1.540000000e-01 1.090000000e-01 4.000000000e-02
    endloop
  endfacet
  facet normal -1.000000000e+00 0.000000000e+00 0.000000000e+00
    outer loop
      vertex 1.540000000e-01 2.590000000e-01 -1.000000000e-03
      vertex 1.540000000e-01 1.090000000e-01 4.000000000e-02
      vertex 1.540000000e-01 2.590000000e-01 4.000000000e-02
    endloop
  endfacet
  facet normal 1.000000000e+00 0.000000000e+00 0.000000000e+00
    outer loop
      vertex 2.640000000e-01 1.090000000e-01 -1.000000000e-03
      vertex 2.640000000e-01 2.590000000e-01 -1.000000000e-03
      vertex 2.640000000e-01 2.590000000e-01 4.000000000e-02
    endloop
  endfacet
  facet normal 1.000000000e+00 0.000000000e+00 0.000000000e+00
    outer loop
      vertex 2.640000000e-01 1.090000000e-01 -1.000000000e-03
      vertex 2.640000000e-01 2.590000000e-01 4.000000000e-02
      vertex 2.640000000e-01 1.090000000e-01 4.000000000e-02
    endloop
  endfacet
endsolid pillow_D
solid pillow_E
  facet normal 0.000000000e+00 0.000000000e+00 1.000000000e+00
    outer loop
      vertex 2.800000000e-02 2.750000000e-01 4.000000000e-02
      vertex 1.380000000e-01 2.750000000e-01 4.000000000e-02
      vertex 1.380000000e-01 3.690000000e-01 4.000000000e-02
    endloop
  endfacet
  facet normal 0.000000000e+00 0.000000000e+00 1.000000000e+00
    outer loop
      vertex 2.800000000e-02 2.750000000e-01 4.000000000e-02
      vertex 1.380000000e-01 3.690000000e-01 4.000000000e-02
      vertex 2.800000000e-02 3.690000000e-01 4.000000000e-02
    endloop
  endfacet
  facet normal 0.000000000e+00 0.000000000e+00 -1.000000000e+00
    outer loop
      vertex 2.800000000e-02 3.690000000e-01 -1.000000000e-03
      vertex 1.380000000e-01 3.690000000e-01 -1.000000000e-03
      vertex 1.380000000e-01 2.750000000e-01 -1.000000000e-03
    endloop
  endfacet
  facet normal 0.000000000e+00 0.000000000e+00 -1.000000000e+00
    outer loop
      vertex 2.800000000e-02 3.690000000e-01 -1.000000000e-03
      vertex 1.380000000e-01 2.750000000e-01 -1.000000000e-03
      vertex 2.800000000e-02 2.750000000e-01 -1.000000000e-03
    endloop
  endfacet
  facet normal 0.000000000e+00 -1.000000000e+00 0.000000000e+00
    outer loop
      vertex 2.800000000e-02 2.750000000e-01 -1.000000000e-03
      vertex 1.380000000e-01 2.750000000e-01 -1.000000000e-03
      vertex 1.380000000e-01 2.750000000e-01 4.000000000e-02
    endloop
  endfacet
  facet normal 0.000000000e+00 -1.000000000e+00 0.000000000e+00
    outer loop
      vertex 2.800000000e-02 2.750000000e-01 -1.000000000e-03
      vertex 1.380000000e-01 2.750000000e-01 4.000000000e-02
      vertex 2.800000000e-02 2.750000000e-01 4.000000000e-02
    endloop
  endfacet
  facet normal 0.000000000e+00 1.000000000e+00 0.000000000e+00
    outer loop
      vertex 1.380000000e-01 3.690000000e-01 -1.000000000e-03
      vertex 2.800000000e-02 3.690000000e-01 -1.000000000e-03
      vertex 2.800000000e-02 3.690000000e-01 4.000000000e-02
    endloop
  endfacet
  facet normal 0.000000000e+00 1.000000000e+00 -0.000000000e+00
    outer loop
      vertex 1.380000000e-01 3.690000000e-01 -1.000000000e-03
      vertex 2.800000000e-02 3.690000000e-01 4.000000000e-02
      vertex 1.380000000e-01 3.690000000e-01 4.000000000e-02
    endloop
  endfacet
  facet normal -1.000000000e+00 0.000000000e+00 0.000000000e+00
    outer loop
      vertex 2.800000000e-02 3.690000000e-01 -1.000000000e-03
      vertex 2.800000000e-02 2.750000000e-01 -1.000000000e-03
      vertex 2.800000000e-02 2.750000000e-01 4.000000000e-02
    endloop
  endfacet
  facet normal -1.000000000e+00 0.000000000e+00 0.000000000e+00
    outer loop
      vertex 2.800000000e-02 3.690000000e-01 -1.000000000e-03
      vertex 2.800000000e-02 2.750000000e-01 4.000000000e-02
      vertex 2.800000000e-02 3.690000000e-01 4.000000000e-02
    endloop
  endfacet
  facet normal 1.000000000e+00 0.000000000e+00 0.000000000e+00
    outer loop
      vertex 1.380000000e-01 2.750000000e-01 -1.000000000e-03
      vertex 1.380000000e-01 3.690000000e-01 -1.000000000e-03
      vertex 1.380000000e-01 3.690000000e-01 4.000000000e-02
    endloop
  endfacet
  facet normal 1.000000000e+00 0.000000000e+00 0.000000000e+00
    outer loop
      vertex 1.380000000e-01 2.750000000e-01 -1.000000000e-03
      vertex 1.380000000e-01 3.690000000e-01 4.000000000e-02
      vertex 1.380000000e-01 2.750000000e-01 4.000000000e-02
    endloop
  endfacet
endsolid pillow_E
solid pillow_F
  facet normal 0.000000000e+00 0.000000000e+00 1.000000000e+00
    outer loop
      vertex 1.540000000e-01 2.750000000e-01 4.000000000e-02
      vertex 2.640000000e-01 2.750000000e-01 4.000000000e-02
      vertex 2.640000000e-01 3.690000000e-01 4.000000000e-02
    endloop
  endfacet
  facet normal 0.000000000e+00 0.000000000e+00 1.000000000e+00
    outer loop
      vertex 1.540000000e-01 2.750000000e-01 4.000000000e-02
      vertex 2.640000000e-01 3.690000000e-01 4.000000000e-02
      vertex 1.540000000e-01 3.690000000e-01 4.000000000e-02
    endloop
  endfacet
  facet normal 0.000000000e+00 0.000000000e+00 -1.000000000e+00
    outer loop
      vertex 1.540000000e-01 3.690000000e-01 -1.000000000e-03
      vertex 2.640000000e-01 3.690000000e-01 -1.000000000e-03
      vertex 2.640000000e-01 2.750000000e-01 -1.000000000e-03
    endloop
  endfacet
  facet normal 0.000000000e+00 0.000000000e+00 -1.000000000e+00
    outer loop
      vertex 1.540000000e-01 3.690000000e-01 -1.000000000e-03
      vertex 2.640000000e-01 2.750000000e-01 -1.000000000e-03
      vertex 1.540000000e-01 2.750000000e-01 -1.000000000e-03
    endloop
  endfacet
  facet normal 0.000000000e+00 -1.000000000e+00 0.000000000e+00
    outer loop
      vertex 1.540000000e-01 2.750000000e-01 -1.000000000e-03
      vertex 2.640000000e-01 2.750000000e-01 -1.000000000e-03
      vertex 2.640000000e-01 2.750000000e-01 4.000000000e-02
    endloop
  endfacet
  facet normal 0.000000000e+00 -1.000000000e+00 0.000000000e+00
    outer loop
      vertex 1.540000000e-01 2.750000000e-01 -1.000000000e-03
      vertex 2.640000000e-01 2.750000000e-01 4.000000000e-02
      vertex 1.540000000e-01 2.750000000e-01 4.000000000e-02
    endloop
  endfacet
  facet normal 0.000000000e+00 1.000000000e+00 0.000000000e+00
    outer loop
      vertex 2.640000000e-01 3.690000000e-01 -1.000000000e-03
      vertex 1.540000000e-01 3.690000000e-01 -1.000000000e-03
      vertex 1.540000000e-01 3.690000000e-01 4.000000000e-02
    endloop
  endfacet
  facet normal 0.000000000e+00 1.000000000e+00 -0.000000000e+00
    outer loop
      vertex 2.640000000e-01 3.690000000e-01 -1.000000000e-03
      vertex 1.540000000e-01 3.690000000e-01 4.000000000e-02
      vertex 2.640000000e-01 3.690000000e-01 4.000000000e-02
    endloop
  endfacet
  facet normal -1.000000000e+00 0.000000000e+00 0.000000000e+00
    outer loop
      vertex 1.540000000e-01 3.690000000e-01 -1.000000000e-03
      vertex 1.540000000e-01 2.750000000e-01 -1.000000000e-03
      vertex 1.540000000e-01 2.750000000e-01 4.000000000e-02
    endloop
  endfacet
  facet normal -1.000000000e+00 0.000000000e+00 0.000000000e+00
    outer loop
      vertex 1.540000000e-01 3.690000000e-01 -1.000000000e-03
      vertex 1.540000000e-01 2.750000000e-01 4.000000000e-02
      vertex 1.540000000e-01 3.690000000e-01 4.000000000e-02
    endloop
  endfacet
  facet normal 1.000000000e+00 0.000000000e+00 0.000000000e+00
    outer loop
      vertex 2.640000000e-01 2.750000000e-01 -1.000000000e-03
      vertex 2.640000000e-01 3.690000000e-01 -1.000000000e-03
      vertex 2.640000000e-01 3.690000000e-01 4.000000000e-02
    endloop
  endfacet
  facet normal 1.000000000e+00 0.000000000e+00 0.000000000e+00
    outer loop
      vertex 2.640000000e-01 2.750000000e-01 -1.000000000e-03
      vertex 2.640000000e-01 3.690000000e-01 4.000000000e-02
      vertex 2.640000000e-01 2.750000000e-01 4.000000000e-02
    endloop
  endfacet
endsolid pillow_F
