solid plate_pos_1_bot
  facet normal 0.000000e+00 0.000000e+00 -1.000000e+00
    outer loop
      vertex 3.100000e-01 7.000000e-02 8.000000e-02
      vertex 3.100000e-01 1.700000e-01 8.000000e-02
      vertex 3.300000e-01 1.700000e-01 8.000000e-02
    endloop
  endfacet
  facet normal 0.000000e+00 0.000000e+00 -1.000000e+00
    outer loop
      vertex 3.100000e-01 7.000000e-02 8.000000e-02
      vertex 3.300000e-01 1.700000e-01 8.000000e-02
      vertex 3.300000e-01 7.000000e-02 8.000000e-02
    endloop
  endfacet
  facet normal 0.000000e+00 0.000000e+00 1.000000e+00
    outer loop
      vertex 3.100000e-01 7.000000e-02 1.800000e-01
      vertex 3.300000e-01 7.000000e-02 1.800000e-01
      vertex 3.300000e-01 1.700000e-01 1.800000e-01
    endloop
  endfacet
  facet normal 0.000000e+00 0.000000e+00 1.000000e+00
    outer loop
      vertex 3.100000e-01 7.000000e-02 1.800000e-01
      vertex 3.300000e-01 1.700000e-01 1.800000e-01
      vertex 3.100000e-01 1.700000e-01 1.800000e-01
    endloop
  endfacet
  facet normal 0.000000e+00 -1.000000e+00 0.000000e+00
    outer loop
      vertex 3.100000e-01 7.000000e-02 8.000000e-02
      vertex 3.300000e-01 7.000000e-02 8.000000e-02
      vertex 3.300000e-01 7.000000e-02 1.800000e-01
    endloop
  endfacet
  facet normal 0.000000e+00 -1.000000e+00 0.000000e+00
    outer loop
      vertex 3.100000e-01 7.000000e-02 8.000000e-02
      vertex 3.300000e-01 7.000000e-02 1.800000e-01
      vertex 3.100000e-01 7.000000e-02 1.800000e-01
    endloop
  endfacet
  facet normal 0.000000e+00 1.000000e+00 0.000000e+00
    outer loop
      vertex 3.300000e-01 1.700000e-01 8.000000e-02
      vertex 3.100000e-01 1.700000e-01 8.000000e-02
      vertex 3.100000e-01 1.700000e-01 1.800000e-01
    endloop
  endfacet
  facet normal 0.000000e+00 1.000000e+00 -0.000000e+00
    outer loop
      vertex 3.300000e-01 1.700000e-01 8.000000e-02
      vertex 3.100000e-01 1.700000e-01 1.800000e-01
      vertex 3.300000e-01 1.700000e-01 1.800000e-01
    endloop
  endfacet
  facet normal -1.000000e+00 0.000000e+00 0.000000e+00
    outer loop
      vertex 3.100000e-01 1.700000e-01 8.000000e-02
      vertex 3.100000e-01 7.000000e-02 8.000000e-02
      vertex 3.100000e-01 7.000000e-02 1.800000e-01
    endloop
  endfacet
  facet normal -1.000000e+00 0.000000e+00 0.000000e+00
    outer loop
      vertex 3.100000e-01 1.700000e-01 8.000000e-02
      vertex 3.100000e-01 7.000000e-02 1.800000e-01
      vertex 3.100000e-01 1.700000e-01 1.800000e-01
    endloop
  endfacet
  facet normal 1.000000e+00 0.000000e+00 0.000000e+00
    outer loop
      vertex 3.300000e-01 7.000000e-02 8.000000e-02
      vertex 3.300000e-01 1.700000e-01 8.000000e-02
      vertex 3.300000e-01 1.700000e-01 1.800000e-01
    endloop
  endfacet
  facet normal 1.000000e+00 0.000000e+00 0.000000e+00
    outer loop
      vertex 3.300000e-01 7.000000e-02 8.000000e-02
      vertex 3.300000e-01 1.700000e-01 1.800000e-01
      vertex 3.300000e-01 7.000000e-02 1.800000e-01
    endloop
  endfacet
endsolid plate_pos_1_bot
solid plate_pos_2_top
  facet normal 0.000000e+00 0.000000e+00 -1.000000e+00
    outer loop
      vertex 3.100000e-01 7.000000e-02 2.600000e-01
      vertex 3.100000e-01 1.700000e-01 2.600000e-01
      vertex 3.300000e-01 1.700000e-01 2.600000e-01
    endloop
  endfacet
  facet normal 0.000000e+00 0.000000e+00 -1.000000e+00
    outer loop
      vertex 3.100000e-01 7.000000e-02 2.600000e-01
      vertex 3.300000e-01 1.700000e-01 2.600000e-01
      vertex 3.300000e-01 7.000000e-02 2.600000e-01
    endloop
  endfacet
  facet normal 0.000000e+00 0.000000e+00 1.000000e+00
    outer loop
      vertex 3.100000e-01 7.000000e-02 3.600000e-01
      vertex 3.300000e-01 7.000000e-02 3.600000e-01
      vertex 3.300000e-01 1.700000e-01 3.600000e-01
    endloop
  endfacet
  facet normal 0.000000e+00 0.000000e+00 1.000000e+00
    outer loop
      vertex 3.100000e-01 7.000000e-02 3.600000e-01
      vertex 3.300000e-01 1.700000e-01 3.600000e-01
      vertex 3.100000e-01 1.700000e-01 3.600000e-01
    endloop
  endfacet
  facet normal 0.000000e+00 -1.000000e+00 0.000000e+00
    outer loop
      vertex 3.100000e-01 7.000000e-02 2.600000e-01
      vertex 3.300000e-01 7.000000e-02 2.600000e-01
      vertex 3.300000e-01 7.000000e-02 3.600000e-01
    endloop
  endfacet
  facet normal 0.000000e+00 -1.000000e+00 0.000000e+00
    outer loop
      vertex 3.100000e-01 7.000000e-02 2.600000e-01
      vertex 3.300000e-01 7.000000e-02 3.600000e-01
      vertex 3.100000e-01 7.000000e-02 3.600000e-01
    endloop
  endfacet
  facet normal 0.000000e+00 1.000000e+00 0.000000e+00
    outer loop
      vertex 3.300000e-01 1.700000e-01 2.600000e-01
      vertex 3.100000e-01 1.700000e-01 2.600000e-01
      vertex 3.100000e-01 1.700000e-01 3.600000e-01
    endloop
  endfacet
  facet normal 0.000000e+00 1.000000e+00 -0.000000e+00
    outer loop
      vertex 3.300000e-01 1.700000e-01 2.600000e-01
      vertex 3.100000e-01 1.700000e-01 3.600000e-01
      vertex 3.300000e-01 1.700000e-01 3.600000e-01
    endloop
  endfacet
  facet normal -1.000000e+00 0.000000e+00 0.000000e+00
    outer loop
      vertex 3.100000e-01 1.700000e-01 2.600000e-01
      vertex 3.100000e-01 7.000000e-02 2.600000e-01
      vertex 3.100000e-01 7.000000e-02 3.600000e-01
    endloop
  endfacet
  facet normal -1.000000e+00 0.000000e+00 0.000000e+00
    outer loop
      vertex 3.100000e-01 1.700000e-01 2.600000e-01
      vertex 3.100000e-01 7.000000e-02 3.600000e-01
      vertex 3.100000e-01 1.700000e-01 3.600000e-01
    endloop
  endfacet
  facet normal 1.000000e+00 0.000000e+00 0.000000e+00
    outer loop
      vertex 3.300000e-01 7.000000e-02 2.600000e-01
      vertex 3.300000e-01 1.700000e-01 2.600000e-01
      vertex 3.300000e-01 1.700000e-01 3.600000e-01
    endloop
  endfacet
  facet normal 1.000000e+00 0.000000e+00 0.000000e+00
    outer loop
      vertex 3.300000e-01 7.000000e-02 2.600000e-01
      vertex 3.300000e-01 1.700000e-01 3.600000e-01
      vertex 3.300000e-01 7.000000e-02 3.600000e-01
    endloop
  endfacet
endsolid plate_pos_2_top
solid plate_pos_3_bot
  facet normal 0.000000e+00 0.000000e+00 -1.000000e+00
    outer loop
      vertex 1.700000e-01 1.700000e-01 8.000000e-02
      vertex 1.700000e-01 1.900000e-01 8.000000e-02
      vertex 2.700000e-01 1.900000e-01 8.000000e-02
    endloop
  endfacet
  facet normal 0.000000e+00 0.000000e+00 -1.000000e+00
    outer loop
      vertex 1.700000e-01 1.700000e-01 8.000000e-02
      vertex 2.700000e-01 1.900000e-01 8.000000e-02
      vertex 2.700000e-01 1.700000e-01 8.000000e-02
    endloop
  endfacet
  facet normal 0.000000e+00 0.000000e+00 1.000000e+00
    outer loop
      vertex 1.700000e-01 1.700000e-01 1.800000e-01
      vertex 2.700000e-01 1.700000e-01 1.800000e-01
      vertex 2.700000e-01 1.900000e-01 1.800000e-01
    endloop
  endfacet
  facet normal 0.000000e+00 0.000000e+00 1.000000e+00
    outer loop
      vertex 1.700000e-01 1.700000e-01 1.800000e-01
      vertex 2.700000e-01 1.900000e-01 1.800000e-01
      vertex 1.700000e-01 1.900000e-01 1.800000e-01
    endloop
  endfacet
  facet normal 0.000000e+00 -1.000000e+00 0.000000e+00
    outer loop
      vertex 1.700000e-01 1.700000e-01 8.000000e-02
      vertex 2.700000e-01 1.700000e-01 8.000000e-02
      vertex 2.700000e-01 1.700000e-01 1.800000e-01
    endloop
  endfacet
  facet normal 0.000000e+00 -1.000000e+00 0.000000e+00
    outer loop
      vertex 1.700000e-01 1.700000e-01 8.000000e-02
      vertex 2.700000e-01 1.700000e-01 1.800000e-01
      vertex 1.700000e-01 1.700000e-01 1.800000e-01
    endloop
  endfacet
  facet normal 0.000000e+00 1.000000e+00 0.000000e+00
    outer loop
      vertex 2.700000e-01 1.900000e-01 8.000000e-02
      vertex 1.700000e-01 1.900000e-01 8.000000e-02
      vertex 1.700000e-01 1.900000e-01 1.800000e-01
    endloop
  endfacet
  facet normal 0.000000e+00 1.000000e+00 -0.000000e+00
    outer loop
      vertex 2.700000e-01 1.900000e-01 8.000000e-02
      vertex 1.700000e-01 1.900000e-01 1.800000e-01
      vertex 2.700000e-01 1.900000e-01 1.800000e-01
    endloop
  endfacet
  facet normal -1.000000e+00 0.000000e+00 0.000000e+00
    outer loop
      vertex 1.700000e-01 1.900000e-01 8.000000e-02
      vertex 1.700000e-01 1.700000e-01 8.000000e-02
      vertex 1.700000e-01 1.700000e-01 1.800000e-01
    endloop
  endfacet
  facet normal -1.000000e+00 0.000000e+00 0.000000e+00
    outer loop
      vertex 1.700000e-01 1.900000e-01 8.000000e-02
      vertex 1.700000e-01 1.700000e-01 1.800000e-01
      vertex 1.700000e-01 1.900000e-01 1.800000e-01
    endloop
  endfacet
  facet normal 1.000000e+00 0.000000e+00 0.000000e+00
    outer loop
      vertex 2.700000e-01 1.700000e-01 8.000000e-02
      vertex 2.700000e-01 1.900000e-01 8.000000e-02
      vertex 2.700000e-01 1.900000e-01 1.800000e-01
    endloop
  endfacet
  facet normal 1.000000e+00 0.000000e+00 0.000000e+00
    outer loop
      vertex 2.700000e-01 1.700000e-01 8.000000e-02
      vertex 2.700000e-01 1.900000e-01 1.800000e-01
      vertex 2.700000e-01 1.700000e-01 1.800000e-01
    endloop
  endfacet
endsolid plate_pos_3_bot
solid plate_pos_4_top
  facet normal 0.000000e+00 0.000000e+00 -1.000000e+00
    outer loop
      vertex 1.700000e-01 1.700000e-01 2.600000e-01
      vertex 1.700000e-01 1.900000e-01 2.600000e-01
      vertex 2.700000e-01 1.900000e-01 2.600000e-01
    endloop
  endfacet
  facet normal 0.000000e+00 0.000000e+00 -1.000000e+00
    outer loop
      vertex 1.700000e-01 1.700000e-01 2.600000e-01
      vertex 2.700000e-01 1.900000e-01 2.600000e-01
      vertex 2.700000e-01 1.700000e-01 2.600000e-01
    endloop
  endfacet
  facet normal 0.000000e+00 0.000000e+00 1.000000e+00
    outer loop
      vertex 1.700000e-01 1.700000e-01 3.600000e-01
      vertex 2.700000e-01 1.700000e-01 3.600000e-01
      vertex 2.700000e-01 1.900000e-01 3.600000e-01
    endloop
  endfacet
  facet normal 0.000000e+00 0.000000e+00 1.000000e+00
    outer loop
      vertex 1.700000e-01 1.700000e-01 3.600000e-01
      vertex 2.700000e-01 1.900000e-01 3.600000e-01
      vertex 1.700000e-01 1.900000e-01 3.600000e-01
    endloop
  endfacet
  facet normal 0.000000e+00 -1.000000e+00 0.000000e+00
    outer loop
      vertex 1.700000e-01 1.700000e-01 2.600000e-01
      vertex 2.700000e-01 1.700000e-01 2.600000e-01
      vertex 2.700000e-01 1.700000e-01 3.600000e-01
    endloop
  endfacet
  facet normal 0.000000e+00 -1.000000e+00 0.000000e+00
    outer loop
      vertex 1.700000e-01 1.700000e-01 2.600000e-01
      vertex 2.700000e-01 1.700000e-01 3.600000e-01
      vertex 1.700000e-01 1.700000e-01 3.600000e-01
    endloop
  endfacet
  facet normal 0.000000e+00 1.000000e+00 0.000000e+00
    outer loop
      vertex 2.700000e-01 1.900000e-01 2.600000e-01
      vertex 1.700000e-01 1.900000e-01 2.600000e-01
      vertex 1.700000e-01 1.900000e-01 3.600000e-01
    endloop
  endfacet
  facet normal 0.000000e+00 1.000000e+00 -0.000000e+00
    outer loop
      vertex 2.700000e-01 1.900000e-01 2.600000e-01
      vertex 1.700000e-01 1.900000e-01 3.600000e-01
      vertex 2.700000e-01 1.900000e-01 3.600000e-01
    endloop
  endfacet
  facet normal -1.000000e+00 0.000000e+00 0.000000e+00
    outer loop
      vertex 1.700000e-01 1.900000e-01 2.600000e-01
      vertex 1.700000e-01 1.700000e-01 2.600000e-01
      vertex 1.700000e-01 1.700000e-01 3.600000e-01
    endloop
  endfacet
  facet normal -1.000000e+00 0.000000e+00 0.000000e+00
    outer loop
      vertex 1.700000e-01 1.900000e-01 2.600000e-01
      vertex 1.700000e-01 1.700000e-01 3.600000e-01
      vertex 1.700000e-01 1.900000e-01 3.600000e-01
    endloop
  endfacet
  facet normal 1.000000e+00 0.000000e+00 0.000000e+00
    outer loop
      vertex 2.700000e-01 1.700000e-01 2.600000e-01
      vertex 2.700000e-01 1.900000e-01 2.600000e-01
      vertex 2.700000e-01 1.900000e-01 3.600000e-01
    endloop
  endfacet
  facet normal 1.000000e+00 0.000000e+00 0.000000e+00
    outer loop
      vertex 2.700000e-01 1.700000e-01 2.600000e-01
      vertex 2.700000e-01 1.900000e-01 3.600000e-01
      vertex 2.700000e-01 1.700000e-01 3.600000e-01
    endloop
  endfacet
endsolid plate_pos_4_top
solid plate_pos_5_bot
  facet normal 0.000000e+00 0.000000e+00 -1.000000e+00
    outer loop
      vertex 1.100000e-01 7.000000e-02 8.000000e-02
      vertex 1.100000e-01 1.700000e-01 8.000000e-02
      vertex 1.300000e-01 1.700000e-01 8.000000e-02
    endloop
  endfacet
  facet normal 0.000000e+00 0.000000e+00 -1.000000e+00
    outer loop
      vertex 1.100000e-01 7.000000e-02 8.000000e-02
      vertex 1.300000e-01 1.700000e-01 8.000000e-02
      vertex 1.300000e-01 7.000000e-02 8.000000e-02
    endloop
  endfacet
  facet normal 0.000000e+00 0.000000e+00 1.000000e+00
    outer loop
      vertex 1.100000e-01 7.000000e-02 1.800000e-01
      vertex 1.300000e-01 7.000000e-02 1.800000e-01
      vertex 1.300000e-01 1.700000e-01 1.800000e-01
    endloop
  endfacet
  facet normal 0.000000e+00 0.000000e+00 1.000000e+00
    outer loop
      vertex 1.100000e-01 7.000000e-02 1.800000e-01
      vertex 1.300000e-01 1.700000e-01 1.800000e-01
      vertex 1.100000e-01 1.700000e-01 1.800000e-01
    endloop
  endfacet
  facet normal 0.000000e+00 -1.000000e+00 0.000000e+00
    outer loop
      vertex 1.100000e-01 7.000000e-02 8.000000e-02
      vertex 1.300000e-01 7.000000e-02 8.000000e-02
      vertex 1.300000e-01 7.000000e-02 1.800000e-01
    endloop
  endfacet
  facet normal 0.000000e+00 -1.000000e+00 0.000000e+00
    outer loop
      vertex 1.100000e-01 7.000000e-02 8.000000e-02
      vertex 1.300000e-01 7.000000e-02 1.800000e-01
      vertex 1.100000e-01 7.000000e-02 1.800000e-01
    endloop
  endfacet
  facet normal 0.000000e+00 1.000000e+00 0.000000e+00
    outer loop
      vertex 1.300000e-01 1.700000e-01 8.000000e-02
      vertex 1.100000e-01 1.700000e-01 8.000000e-02
      vertex 1.100000e-01 1.700000e-01 1.800000e-01
    endloop
  endfacet
  facet normal 0.000000e+00 1.000000e+00 -0.000000e+00
    outer loop
      vertex 1.300000e-01 1.700000e-01 8.000000e-02
      vertex 1.100000e-01 1.700000e-01 1.800000e-01
      vertex 1.300000e-01 1.700000e-01 1.800000e-01
    endloop
  endfacet
  facet normal -1.000000e+00 0.000000e+00 0.000000e+00
    outer loop
      vertex 1.100000e-01 1.700000e-01 8.000000e-02
      vertex 1.100000e-01 7.000000e-02 8.000000e-02
      vertex 1.100000e-01 7.000000e-02 1.800000e-01
    endloop
  endfacet
  facet normal -1.000000e+00 0.000000e+00 0.000000e+00
    outer loop
      vertex 1.100000e-01 1.700000e-01 8.000000e-02
      vertex 1.100000e-01 7.000000e-02 1.800000e-01
      vertex 1.100000e-01 1.700000e-01 1.800000e-01
    endloop
  endfacet
  facet normal 1.000000e+00 0.000000e+00 0.000000e+00
    outer loop
      vertex 1.300000e-01 7.000000e-02 8.000000e-02
      vertex 1.300000e-01 1.700000e-01 8.000000e-02
      vertex 1.300000e-01 1.700000e-01 1.800000e-01
    endloop
  endfacet
  facet normal 1.000000e+00 0.000000e+00 0.000000e+00
    outer loop
      vertex 1.300000e-01 7.000000e-02 8.000000e-02
      vertex 1.300000e-01 1.700000e-01 1.800000e-01
      vertex 1.300000e-01 7.000000e-02 1.800000e-01
    endloop
  endfacet
endsolid plate_pos_5_bot
solid plate_pos_6_top
  facet normal 0.000000e+00 0.000000e+00 -1.000000e+00
    outer loop
      vertex 1.100000e-01 7.000000e-02 2.600000e-01
      vertex 1.100000e-01 1.700000e-01 2.600000e-01
      vertex 1.300000e-01 1.700000e-01 2.600000e-01
    endloop
  endfacet
  facet normal 0.000000e+00 0.000000e+00 -1.000000e+00
    outer loop
      vertex 1.100000e-01 7.000000e-02 2.600000e-01
      vertex 1.300000e-01 1.700000e-01 2.600000e-01
      vertex 1.300000e-01 7.000000e-02 2.600000e-01
    endloop
  endfacet
  facet normal 0.000000e+00 0.000000e+00 1.000000e+00
    outer loop
      vertex 1.100000e-01 7.000000e-02 3.600000e-01
      vertex 1.300000e-01 7.000000e-02 3.600000e-01
      vertex 1.300000e-01 1.700000e-01 3.600000e-01
    endloop
  endfacet
  facet normal 0.000000e+00 0.000000e+00 1.000000e+00
    outer loop
      vertex 1.100000e-01 7.000000e-02 3.600000e-01
      vertex 1.300000e-01 1.700000e-01 3.600000e-01
      vertex 1.100000e-01 1.700000e-01 3.600000e-01
    endloop
  endfacet
  facet normal 0.000000e+00 -1.000000e+00 0.000000e+00
    outer loop
      vertex 1.100000e-01 7.000000e-02 2.600000e-01
      vertex 1.300000e-01 7.000000e-02 2.600000e-01
      vertex 1.300000e-01 7.000000e-02 3.600000e-01
    endloop
  endfacet
  facet normal 0.000000e+00 -1.000000e+00 0.000000e+00
    outer loop
      vertex 1.100000e-01 7.000000e-02 2.600000e-01
      vertex 1.300000e-01 7.000000e-02 3.600000e-01
      vertex 1.100000e-01 7.000000e-02 3.600000e-01
    endloop
  endfacet
  facet normal 0.000000e+00 1.000000e+00 0.000000e+00
    outer loop
      vertex 1.300000e-01 1.700000e-01 2.600000e-01
      vertex 1.100000e-01 1.700000e-01 2.600000e-01
      vertex 1.100000e-01 1.700000e-01 3.600000e-01
    endloop
  endfacet
  facet normal 0.000000e+00 1.000000e+00 -0.000000e+00
    outer loop
      vertex 1.300000e-01 1.700000e-01 2.600000e-01
      vertex 1.100000e-01 1.700000e-01 3.600000e-01
      vertex 1.300000e-01 1.700000e-01 3.600000e-01
    endloop
  endfacet
  facet normal -1.000000e+00 0.000000e+00 0.000000e+00
    outer loop
      vertex 1.100000e-01 1.700000e-01 2.600000e-01
      vertex 1.100000e-01 7.000000e-02 2.600000e-01
      vertex 1.100000e-01 7.000000e-02 3.600000e-01
    endloop
  endfacet
  facet normal -1.000000e+00 0.000000e+00 0.000000e+00
    outer loop
      vertex 1.100000e-01 1.700000e-01 2.600000e-01
      vertex 1.100000e-01 7.000000e-02 3.600000e-01
      vertex 1.100000e-01 1.700000e-01 3.600000e-01
    endloop
  endfacet
  facet normal 1.000000e+00 0.000000e+00 0.000000e+00
    outer loop
      vertex 1.300000e-01 7.000000e-02 2.600000e-01
      vertex 1.300000e-01 1.700000e-01 2.600000e-01
      vertex 1.300000e-01 1.700000e-01 3.600000e-01
    endloop
  endfacet
  facet normal 1.000000e+00 0.000000e+00 0.000000e+00
    outer loop
      vertex 1.300000e-01 7.000000e-02 2.600000e-01
      vertex 1.300000e-01 1.700000e-01 3.600000e-01
      vertex 1.300000e-01 7.000000e-02 3.600000e-01
    endloop
  endfacet
endsolid plate_pos_6_top
solid tape_seam_1
  facet normal 0.000000e+00 0.000000e+00 -1.000000e+00
    outer loop
      vertex 3.080000e-01 6.800000e-02 7.800000e-02
      vertex 3.080000e-01 1.720000e-01 7.800000e-02
      vertex 3.320000e-01 1.720000e-01 7.800000e-02
    endloop
  endfacet
  facet normal 0.000000e+00 0.000000e+00 -1.000000e+00
    outer loop
      vertex 3.080000e-01 6.800000e-02 7.800000e-02
      vertex 3.320000e-01 1.720000e-01 7.800000e-02
      vertex 3.320000e-01 6.800000e-02 7.800000e-02
    endloop
  endfacet
  facet normal 0.000000e+00 0.000000e+00 1.000000e+00
    outer loop
      vertex 3.080000e-01 6.800000e-02 1.820000e-01
      vertex 3.320000e-01 6.800000e-02 1.820000e-01
      vertex 3.320000e-01 1.720000e-01 1.820000e-01
    endloop
  endfacet
  facet normal 0.000000e+00 0.000000e+00 1.000000e+00
    outer loop
      vertex 3.080000e-01 6.800000e-02 1.820000e-01
      vertex 3.320000e-01 1.720000e-01 1.820000e-01
      vertex 3.080000e-01 1.720000e-01 1.820000e-01
    endloop
  endfacet
  facet normal 0.000000e+00 -1.000000e+00 0.000000e+00
    outer loop
      vertex 3.080000e-01 6.800000e-02 7.800000e-02
      vertex 3.320000e-01 6.800000e-02 7.800000e-02
      vertex 3.320000e-01 6.800000e-02 1.820000e-01
    endloop
  endfacet
  facet normal 0.000000e+00 -1.000000e+00 0.000000e+00
    outer loop
      vertex 3.080000e-01 6.800000e-02 7.800000e-02
      vertex 3.320000e-01 6.800000e-02 1.820000e-01
      vertex 3.080000e-01 6.800000e-02 1.820000e-01
    endloop
  endfacet
  facet normal 0.000000e+00 1.000000e+00 0.000000e+00
    outer loop
      vertex 3.320000e-01 1.720000e-01 7.800000e-02
      vertex 3.080000e-01 1.720000e-01 7.800000e-02
      vertex 3.080000e-01 1.720000e-01 1.820000e-01
    endloop
  endfacet
  facet normal 0.000000e+00 1.000000e+00 -0.000000e+00
    outer loop
      vertex 3.320000e-01 1.720000e-01 7.800000e-02
      vertex 3.080000e-01 1.720000e-01 1.820000e-01
      vertex 3.320000e-01 1.720000e-01 1.820000e-01
    endloop
  endfacet
  facet normal -1.000000e+00 0.000000e+00 0.000000e+00
    outer loop
      vertex 3.080000e-01 1.720000e-01 7.800000e-02
      vertex 3.080000e-01 6.800000e-02 7.800000e-02
      vertex 3.080000e-01 6.800000e-02 1.820000e-01
    endloop
  endfacet
  facet normal -1.000000e+00 0.000000e+00 0.000000e+00
    outer loop
      vertex 3.080000e-01 1.720000e-01 7.800000e-02
      vertex 3.080000e-01 6.800000e-02 1.820000e-01
      vertex 3.080000e-01 1.720000e-01 1.820000e-01
    endloop
  endfacet
  facet normal 1.000000e+00 0.000000e+00 0.000000e+00
    outer loop
      vertex 3.320000e-01 6.800000e-02 7.800000e-02
      vertex 3.320000e-01 1.720000e-01 7.800000e-02
      vertex 3.320000e-01 1.720000e-01 1.820000e-01
    endloop
  endfacet
  facet normal 1.000000e+00 0.000000e+00 0.000000e+00
    outer loop
      vertex 3.320000e-01 6.800000e-02 7.800000e-02
      vertex 3.320000e-01 1.720000e-01 1.820000e-01
      vertex 3.320000e-01 6.800000e-02 1.820000e-01
    endloop
  endfacet
endsolid tape_seam_1
solid tape_seam_2
  facet normal 0.000000e+00 0.000000e+00 -1.000000e+00
    outer loop
      vertex 3.080000e-01 6.800000e-02 2.580000e-01
      vertex 3.080000e-01 1.720000e-01 2.580000e-01
      vertex 3.320000e-01 1.720000e-01 2.580000e-01
    endloop
  endfacet
  facet normal 0.000000e+00 0.000000e+00 -1.000000e+00
    outer loop
      vertex 3.080000e-01 6.800000e-02 2.580000e-01
      vertex 3.320000e-01 1.720000e-01 2.580000e-01
      vertex 3.320000e-01 6.800000e-02 2.580000e-01
    endloop
  endfacet
  facet normal 0.000000e+00 0.000000e+00 1.000000e+00
    outer loop
      vertex 3.080000e-01 6.800000e-02 3.620000e-01
      vertex 3.320000e-01 6.800000e-02 3.620000e-01
      vertex 3.320000e-01 1.720000e-01 3.620000e-01
    endloop
  endfacet
  facet normal 0.000000e+00 0.000000e+00 1.000000e+00
    outer loop
      vertex 3.080000e-01 6.800000e-02 3.620000e-01
      vertex 3.320000e-01 1.720000e-01 3.620000e-01
      vertex 3.080000e-01 1.720000e-01 3.620000e-01
    endloop
  endfacet
  facet normal 0.000000e+00 -1.000000e+00 0.000000e+00
    outer loop
      vertex 3.080000e-01 6.800000e-02 2.580000e-01
      vertex 3.320000e-01 6.800000e-02 2.580000e-01
      vertex 3.320000e-01 6.800000e-02 3.620000e-01
    endloop
  endfacet
  facet normal 0.000000e+00 -1.000000e+00 0.000000e+00
    outer loop
      vertex 3.080000e-01 6.800000e-02 2.580000e-01
      vertex 3.320000e-01 6.800000e-02 3.620000e-01
      vertex 3.080000e-01 6.800000e-02 3.620000e-01
    endloop
  endfacet
  facet normal 0.000000e+00 1.000000e+00 0.000000e+00
    outer loop
      vertex 3.320000e-01 1.720000e-01 2.580000e-01
      vertex 3.080000e-01 1.720000e-01 2.580000e-01
      vertex 3.080000e-01 1.720000e-01 3.620000e-01
    endloop
  endfacet
  facet normal 0.000000e+00 1.000000e+00 -0.000000e+00
    outer loop
      vertex 3.320000e-01 1.720000e-01 2.580000e-01
      vertex 3.080000e-01 1.720000e-01 3.620000e-01
      vertex 3.320000e-01 1.720000e-01 3.620000e-01
    endloop
  endfacet
  facet normal -1.000000e+00 0.000000e+00 0.000000e+00
    outer loop
      vertex 3.080000e-01 1.720000e-01 2.580000e-01
      vertex 3.080000e-01 6.800000e-02 2.580000e-01
      vertex 3.080000e-01 6.800000e-02 3.620000e-01
    endloop
  endfacet
  facet normal -1.000000e+00 0.000000e+00 0.000000e+00
    outer loop
      vertex 3.080000e-01 1.720000e-01 2.580000e-01
      vertex 3.080000e-01 6.800000e-02 3.620000e-01
      vertex 3.080000e-01 1.720000e-01 3.620000e-01
    endloop
  endfacet
  facet normal 1.000000e+00 0.000000e+00 0.000000e+00
    outer loop
      vertex 3.320000e-01 6.800000e-02 2.580000e-01
      vertex 3.320000e-01 1.720000e-01 2.580000e-01
      vertex 3.320000e-01 1.720000e-01 3.620000e-01
    endloop
  endfacet
  facet normal 1.000000e+00 0.000000e+00 0.000000e+00
    outer loop
      vertex 3.320000e-01 6.800000e-02 2.580000e-01
      vertex 3.320000e-01 1.720000e-01 3.620000e-01
      vertex 3.320000e-01 6.800000e-02 3.620000e-01
    endloop
  endfacet
endsolid tape_seam_2
solid tape_seam_3
  facet normal 0.000000e+00 0.000000e+00 -1.000000e+00
    outer loop
      vertex 1.680000e-01 1.680000e-01 7.800000e-02
      vertex 1.680000e-01 1.920000e-01 7.800000e-02
      vertex 2.720000e-01 1.920000e-01 7.800000e-02
    endloop
  endfacet
  facet normal 0.000000e+00 0.000000e+00 -1.000000e+00
    outer loop
      vertex 1.680000e-01 1.680000e-01 7.800000e-02
      vertex 2.720000e-01 1.920000e-01 7.800000e-02
      vertex 2.720000e-01 1.680000e-01 7.800000e-02
    endloop
  endfacet
  facet normal 0.000000e+00 0.000000e+00 1.000000e+00
    outer loop
      vertex 1.680000e-01 1.680000e-01 1.820000e-01
      vertex 2.720000e-01 1.680000e-01 1.820000e-01
      vertex 2.720000e-01 1.920000e-01 1.820000e-01
    endloop
  endfacet
  facet normal 0.000000e+00 0.000000e+00 1.000000e+00
    outer loop
      vertex 1.680000e-01 1.680000e-01 1.820000e-01
      vertex 2.720000e-01 1.920000e-01 1.820000e-01
      vertex 1.680000e-01 1.920000e-01 1.820000e-01
    endloop
  endfacet
  facet normal 0.000000e+00 -1.000000e+00 0.000000e+00
    outer loop
      vertex 1.680000e-01 1.680000e-01 7.800000e-02
      vertex 2.720000e-01 1.680000e-01 7.800000e-02
      vertex 2.720000e-01 1.680000e-01 1.820000e-01
    endloop
  endfacet
  facet normal 0.000000e+00 -1.000000e+00 0.000000e+00
    outer loop
      vertex 1.680000e-01 1.680000e-01 7.800000e-02
      vertex 2.720000e-01 1.680000e-01 1.820000e-01
      vertex 1.680000e-01 1.680000e-01 1.820000e-01
    endloop
  endfacet
  facet normal 0.000000e+00 1.000000e+00 0.000000e+00
    outer loop
      vertex 2.720000e-01 1.920000e-01 7.800000e-02
      vertex 1.680000e-01 1.920000e-01 7.800000e-02
      vertex 1.680000e-01 1.920000e-01 1.820000e-01
    endloop
  endfacet
  facet normal 0.000000e+00 1.000000e+00 -0.000000e+00
    outer loop
      vertex 2.720000e-01 1.920000e-01 7.800000e-02
      vertex 1.680000e-01 1.920000e-01 1.820000e-01
      vertex 2.720000e-01 1.920000e-01 1.820000e-01
    endloop
  endfacet
  facet normal -1.000000e+00 0.000000e+00 0.000000e+00
    outer loop
      vertex 1.680000e-01 1.920000e-01 7.800000e-02
      vertex 1.680000e-01 1.680000e-01 7.800000e-02
      vertex 1.680000e-01 1.680000e-01 1.820000e-01
    endloop
  endfacet
  facet normal -1.000000e+00 0.000000e+00 0.000000e+00
    outer loop
      vertex 1.680000e-01 1.920000e-01 7.800000e-02
      vertex 1.680000e-01 1.680000e-01 1.820000e-01
      vertex 1.680000e-01 1.920000e-01 1.820000e-01
    endloop
  endfacet
  facet normal 1.000000e+00 0.000000e+00 0.000000e+00
    outer loop
      vertex 2.720000e-01 1.680000e-01 7.800000e-02
      vertex 2.720000e-01 1.920000e-01 7.800000e-02
      vertex 2.720000e-01 1.920000e-01 1.820000e-01
    endloop
  endfacet
  facet normal 1.000000e+00 0.000000e+00 0.000000e+00
    outer loop
      vertex 2.720000e-01 1.680000e-01 7.800000e-02
      vertex 2.720000e-01 1.920000e-01 1.820000e-01
      vertex 2.720000e-01 1.680000e-01 1.820000e-01
    endloop
  endfacet
endsolid tape_seam_3
solid tape_seam_4
  facet normal 0.000000e+00 0.000000e+00 -1.000000e+00
    outer loop
      vertex 1.680000e-01 1.680000e-01 2.580000e-01
      vertex 1.680000e-01 1.920000e-01 2.580000e-01
      vertex 2.720000e-01 1.920000e-01 2.580000e-01
    endloop
  endfacet
  facet normal 0.000000e+00 0.000000e+00 -1.000000e+00
    outer loop
      vertex 1.680000e-01 1.680000e-01 2.580000e-01
      vertex 2.720000e-01 1.920000e-01 2.580000e-01
      vertex 2.720000e-01 1.680000e-01 2.580000e-01
    endloop
  endfacet
  facet normal 0.000000e+00 0.000000e+00 1.000000e+00
    outer loop
      vertex 1.680000e-01 1.680000e-01 3.620000e-01
      vertex 2.720000e-01 1.680000e-01 3.620000e-01
      vertex 2.720000e-01 1.920000e-01 3.620000e-01
    endloop
  endfacet
  facet normal 0.000000e+00 0.000000e+00 1.000000e+00
    outer loop
      vertex 1.680000e-01 1.680000e-01 3.620000e-01
      vertex 2.720000e-01 1.920000e-01 3.620000e-01
      vertex 1.680000e-01 1.920000e-01 3.620000e-01
    endloop
  endfacet
  facet normal 0.000000e+00 -1.000000e+00 0.000000e+00
    outer loop
      vertex 1.680000e-01 1.680000e-01 2.580000e-01
      vertex 2.720000e-01 1.680000e-01 2.580000e-01
      vertex 2.720000e-01 1.680000e-01 3.620000e-01
    endloop
  endfacet
  facet normal 0.000000e+00 -1.000000e+00 0.000000e+00
    outer loop
      vertex 1.680000e-01 1.680000e-01 2.580000e-01
      vertex 2.720000e-01 1.680000e-01 3.620000e-01
      vertex 1.680000e-01 1.680000e-01 3.620000e-01
    endloop
  endfacet
  facet normal 0.000000e+00 1.000000e+00 0.000000e+00
    outer loop
      vertex 2.720000e-01 1.920000e-01 2.580000e-01
      vertex 1.680000e-01 1.920000e-01 2.580000e-01
      vertex 1.680000e-01 1.920000e-01 3.620000e-01
    endloop
  endfacet
  facet normal 0.000000e+00 1.000000e+00 -0.000000e+00
    outer loop
      vertex 2.720000e-01 1.920000e-01 2.580000e-01
      vertex 1.680000e-01 1.920000e-01 3.620000e-01
      vertex 2.720000e-01 1.920000e-01 3.620000e-01
    endloop
  endfacet
  facet normal -1.000000e+00 0.000000e+00 0.000000e+00
    outer loop
      vertex 1.680000e-01 1.920000e-01 2.580000e-01
      vertex 1.680000e-01 1.680000e-01 2.580000e-01
      vertex 1.680000e-01 1.680000e-01 3.620000e-01
    endloop
  endfacet
  facet normal -1.000000e+00 0.000000e+00 0.000000e+00
    outer loop
      vertex 1.680000e-01 1.920000e-01 2.580000e-01
      vertex 1.680000e-01 1.680000e-01 3.620000e-01
      vertex 1.680000e-01 1.920000e-01 3.620000e-01
    endloop
  endfacet
  facet normal 1.000000e+00 0.000000e+00 0.000000e+00
    outer loop
      vertex 2.720000e-01 1.680000e-01 2.580000e-01
      vertex 2.720000e-01 1.920000e-01 2.580000e-01
      vertex 2.720000e-01 1.920000e-01 3.620000e-01
    endloop
  endfacet
  facet normal 1.000000e+00 0.000000e+00 0.000000e+00
    outer loop
      vertex 2.720000e-01 1.680000e-01 2.580000e-01
      vertex 2.720000e-01 1.920000e-01 3.620000e-01
      vertex 2.720000e-01 1.680000e-01 3.620000e-01
    endloop
  endfacet
endsolid tape_seam_4
solid tape_seam_5
  facet normal 0.000000e+00 0.000000e+00 -1.000000e+00
    outer loop
      vertex 1.080000e-01 6.800000e-02 7.800000e-02
      vertex 1.080000e-01 1.720000e-01 7.800000e-02
      vertex 1.320000e-01 1.720000e-01 7.800000e-02
    endloop
  endfacet
  facet normal 0.000000e+00 0.000000e+00 -1.000000e+00
    outer loop
      vertex 1.080000e-01 6.800000e-02 7.800000e-02
      vertex 1.320000e-01 1.720000e-01 7.800000e-02
      vertex 1.320000e-01 6.800000e-02 7.800000e-02
    endloop
  endfacet
  facet normal 0.000000e+00 0.000000e+00 1.000000e+00
    outer loop
      vertex 1.080000e-01 6.800000e-02 1.820000e-01
      vertex 1.320000e-01 6.800000e-02 1.820000e-01
      vertex 1.320000e-01 1.720000e-01 1.820000e-01
    endloop
  endfacet
  facet normal 0.000000e+00 0.000000e+00 1.000000e+00
    outer loop
      vertex 1.080000e-01 6.800000e-02 1.820000e-01
      vertex 1.320000e-01 1.720000e-01 1.820000e-01
      vertex 1.080000e-01 1.720000e-01 1.820000e-01
    endloop
  endfacet
  facet normal 0.000000e+00 -1.000000e+00 0.000000e+00
    outer loop
      vertex 1.080000e-01 6.800000e-02 7.800000e-02
      vertex 1.320000e-01 6.800000e-02 7.800000e-02
      vertex 1.320000e-01 6.800000e-02 1.820000e-01
    endloop
  endfacet
  facet normal 0.000000e+00 -1.000000e+00 0.000000e+00
    outer loop
      vertex 1.080000e-01 6.800000e-02 7.800000e-02
      vertex 1.320000e-01 6.800000e-02 1.820000e-01
      vertex 1.080000e-01 6.800000e-02 1.820000e-01
    endloop
  endfacet
  facet normal 0.000000e+00 1.000000e+00 0.000000e+00
    outer loop
      vertex 1.320000e-01 1.720000e-01 7.800000e-02
      vertex 1.080000e-01 1.720000e-01 7.800000e-02
      vertex 1.080000e-01 1.720000e-01 1.820000e-01
    endloop
  endfacet
  facet normal 0.000000e+00 1.000000e+00 -0.000000e+00
    outer loop
      vertex 1.320000e-01 1.720000e-01 7.800000e-02
      vertex 1.080000e-01 1.720000e-01 1.820000e-01
      vertex 1.320000e-01 1.720000e-01 1.820000e-01
    endloop
  endfacet
  facet normal -1.000000e+00 0.000000e+00 0.000000e+00
    outer loop
      vertex 1.080000e-01 1.720000e-01 7.800000e-02
      vertex 1.080000e-01 6.800000e-02 7.800000e-02
      vertex 1.080000e-01 6.800000e-02 1.820000e-01
    endloop
  endfacet
  facet normal -1.000000e+00 0.000000e+00 0.000000e+00
    outer loop
      vertex 1.080000e-01 1.720000e-01 7.800000e-02
      vertex 1.080000e-01 6.800000e-02 1.820000e-01
      vertex 1.080000e-01 1.720000e-01 1.820000e-01
    endloop
  endfacet
  facet normal 1.000000e+00 0.000000e+00 0.000000e+00
    outer loop
      vertex 1.320000e-01 6.800000e-02 7.800000e-02
      vertex 1.320000e-01 1.720000e-01 7.800000e-02
      vertex 1.320000e-01 1.720000e-01 1.820000e-01
    endloop
  endfacet
  facet normal 1.000000e+00 0.000000e+00 0.000000e+00
    outer loop
      vertex 1.320000e-01 6.800000e-02 7.800000e-02
      vertex 1.320000e-01 1.720000e-01 1.820000e-01
      vertex 1.320000e-01 6.800000e-02 1.820000e-01
    endloop
  endfacet
endsolid tape_seam_5
solid tape_seam_6
  facet normal 0.000000e+00 0.000000e+00 -1.000000e+00
    outer loop
      vertex 1.080000e-01 6.800000e-02 2.580000e-01
      vertex 1.080000e-01 1.720000e-01 2.580000e-01
      vertex 1.320000e-01 1.720000e-01 2.580000e-01
    endloop
  endfacet
  facet normal 0.000000e+00 0.000000e+00 -1.000000e+00
    outer loop
      vertex 1.080000e-01 6.800000e-02 2.580000e-01
      vertex 1.320000e-01 1.720000e-01 2.580000e-01
      vertex 1.320000e-01 6.800000e-02 2.580000e-01
    endloop
  endfacet
  facet normal 0.000000e+00 0.000000e+00 1.000000e+00
    outer loop
      vertex 1.080000e-01 6.800000e-02 3.620000e-01
      vertex 1.320000e-01 6.800000e-02 3.620000e-01
      vertex 1.320000e-01 1.720000e-01 3.620000e-01
    endloop
  endfacet
  facet normal 0.000000e+00 0.000000e+00 1.000000e+00
    outer loop
      vertex 1.080000e-01 6.800000e-02 3.620000e-01
      vertex 1.320000e-01 1.720000e-01 3.620000e-01
      vertex 1.080000e-01 1.720000e-01 3.620000e-01
    endloop
  endfacet
  facet normal 0.000000e+00 -1.000000e+00 0.000000e+00
    outer loop
      vertex 1.080000e-01 6.800000e-02 2.580000e-01
      vertex 1.320000e-01 6.800000e-02 2.580000e-01
      vertex 1.320000e-01 6.800000e-02 3.620000e-01
    endloop
  endfacet
  facet normal 0.000000e+00 -1.000000e+00 0.000000e+00
    outer loop
      vertex 1.080000e-01 6.800000e-02 2.580000e-01
      vertex 1.320000e-01 6.800000e-02 3.620000e-01
      vertex 1.080000e-01 6.800000e-02 3.620000e-01
    endloop
  endfacet
  facet normal 0.000000e+00 1.000000e+00 0.000000e+00
    outer loop
      vertex 1.320000e-01 1.720000e-01 2.580000e-01
      vertex 1.080000e-01 1.720000e-01 2.580000e-01
      vertex 1.080000e-01 1.720000e-01 3.620000e-01
    endloop
  endfacet
  facet normal 0.000000e+00 1.000000e+00 -0.000000e+00
    outer loop
      vertex 1.320000e-01 1.720000e-01 2.580000e-01
      vertex 1.080000e-01 1.720000e-01 3.620000e-01
      vertex 1.320000e-01 1.720000e-01 3.620000e-01
    endloop
  endfacet
  facet normal -1.000000e+00 0.000000e+00 0.000000e+00
    outer loop
      vertex 1.080000e-01 1.720000e-01 2.580000e-01
      vertex 1.080000e-01 6.800000e-02 2.580000e-01
      vertex 1.080000e-01 6.800000e-02 3.620000e-01
    endloop
  endfacet
  facet normal -1.000000e+00 0.000000e+00 0.000000e+00
    outer loop
      vertex 1.080000e-01 1.720000e-01 2.580000e-01
      vertex 1.080000e-01 6.800000e-02 3.620000e-01
      vertex 1.080000e-01 1.720000e-01 3.620000e-01
    endloop
  endfacet
  facet normal 1.000000e+00 0.000000e+00 0.000000e+00
    outer loop
      vertex 1.320000e-01 6.800000e-02 2.580000e-01
      vertex 1.320000e-01 1.720000e-01 2.580000e-01
      vertex 1.320000e-01 1.720000e-01 3.620000e-01
    endloop
  endfacet
  facet normal 1.000000e+00 0.000000e+00 0.000000e+00
    outer loop
      vertex 1.320000e-01 6.800000e-02 2.580000e-01
      vertex 1.320000e-01 1.720000e-01 3.620000e-01
      vertex 1.320000e-01 6.800000e-02 3.620000e-01
    endloop
  endfacet
endsolid tape_seam_6
