solid abrs_chassis
  facet normal 0.000000e+00 0.000000e+00 -1.000000e+00
    outer loop
      vertex 0.000000e+00 0.000000e+00 0.000000e+00
      vertex 0.000000e+00 2.530000e-01 0.000000e+00
      vertex 4.400000e-01 2.530000e-01 0.000000e+00
    endloop
  endfacet
  facet normal 0.000000e+00 0.000000e+00 -1.000000e+00
    outer loop
      vertex 0.000000e+00 0.000000e+00 0.000000e+00
      vertex 4.400000e-01 2.530000e-01 0.000000e+00
      vertex 4.400000e-01 0.000000e+00 0.000000e+00
    endloop
  endfacet
  facet normal 0.000000e+00 0.000000e+00 1.000000e+00
    outer loop
      vertex 0.000000e+00 0.000000e+00 5.160000e-01
      vertex 4.400000e-01 0.000000e+00 5.160000e-01
      vertex 4.400000e-01 2.530000e-01 5.160000e-01
    endloop
  endfacet
  facet normal 0.000000e+00 0.000000e+00 1.000000e+00
    outer loop
      vertex 0.000000e+00 0.000000e+00 5.160000e-01
      vertex 4.400000e-01 2.530000e-01 5.160000e-01
      vertex 0.000000e+00 2.530000e-01 5.160000e-01
    endloop
  endfacet
  facet normal 0.000000e+00 -1.000000e+00 0.000000e+00
    outer loop
      vertex 0.000000e+00 0.000000e+00 0.000000e+00
      vertex 4.400000e-01 0.000000e+00 0.000000e+00
      vertex 4.400000e-01 0.000000e+00 5.160000e-01
    endloop
  endfacet
  facet normal 0.000000e+00 -1.000000e+00 0.000000e+00
    outer loop
      vertex 0.000000e+00 0.000000e+00 0.000000e+00
      vertex 4.400000e-01 0.000000e+00 5.160000e-01
      vertex 0.000000e+00 0.000000e+00 5.160000e-01
    endloop
  endfacet
  facet normal 0.000000e+00 1.000000e+00 0.000000e+00
    outer loop
      vertex 4.400000e-01 2.530000e-01 0.000000e+00
      vertex 0.000000e+00 2.530000e-01 0.000000e+00
      vertex 0.000000e+00 2.530000e-01 5.160000e-01
    endloop
  endfacet
  facet normal 0.000000e+00 1.000000e+00 -0.000000e+00
    outer loop
      vertex 4.400000e-01 2.530000e-01 0.000000e+00
      vertex 0.000000e+00 2.530000e-01 5.160000e-01
      vertex 4.400000e-01 2.530000e-01 5.160000e-01
    endloop
  endfacet
  facet normal -1.000000e+00 0.000000e+00 0.000000e+00
    outer loop
      vertex 0.000000e+00 2.530000e-01 0.000000e+00
      vertex 0.000000e+00 0.000000e+00 0.000000e+00
      vertex 0.000000e+00 0.000000e+00 5.160000e-01
    endloop
  endfacet
  facet normal -1.000000e+00 0.000000e+00 0.000000e+00
    outer loop
      vertex 0.000000e+00 2.530000e-01 0.000000e+00
      vertex 0.000000e+00 0.000000e+00 5.160000e-01
      vertex 0.000000e+00 2.530000e-01 5.160000e-01
    endloop
  endfacet
  facet normal 1.000000e+00 0.000000e+00 0.000000e+00
    outer loop
      vertex 4.400000e-01 0.000000e+00 0.000000e+00
      vertex 4.400000e-01 2.530000e-01 0.000000e+00
      vertex 4.400000e-01 2.530000e-01 5.160000e-01
    endloop
  endfacet
  facet normal 1.000000e+00 0.000000e+00 0.000000e+00
    outer loop
      vertex 4.400000e-01 0.000000e+00 0.000000e+00
      vertex 4.400000e-01 2.530000e-01 5.160000e-01
      vertex 4.400000e-01 0.000000e+00 5.160000e-01
    endloop
  endfacet
endsolid abrs_chassis
solid supply_inlet_left
  facet normal 0.000000e+00 0.000000e+00 -1.000000e+00
    outer loop
      vertex 2.000000e-02 2.000000e-02 4.900000e-01
      vertex 2.000000e-02 4.000000e-02 4.900000e-01
      vertex 2.000000e-01 4.000000e-02 4.900000e-01
    endloop
  endfacet
  facet normal 0.000000e+00 0.000000e+00 -1.000000e+00
    outer loop
      vertex 2.000000e-02 2.000000e-02 4.900000e-01
      vertex 2.000000e-01 4.000000e-02 4.900000e-01
      vertex 2.000000e-01 2.000000e-02 4.900000e-01
    endloop
  endfacet
  facet normal 0.000000e+00 0.000000e+00 1.000000e+00
    outer loop
      vertex 2.000000e-02 2.000000e-02 5.100000e-01
      vertex 2.000000e-01 2.000000e-02 5.100000e-01
      vertex 2.000000e-01 4.000000e-02 5.100000e-01
    endloop
  endfacet
  facet normal 0.000000e+00 0.000000e+00 1.000000e+00
    outer loop
      vertex 2.000000e-02 2.000000e-02 5.100000e-01
      vertex 2.000000e-01 4.000000e-02 5.100000e-01
      vertex 2.000000e-02 4.000000e-02 5.100000e-01
    endloop
  endfacet
  facet normal 0.000000e+00 -1.000000e+00 0.000000e+00
    outer loop
      vertex 2.000000e-02 2.000000e-02 4.900000e-01
      vertex 2.000000e-01 2.000000e-02 4.900000e-01
      vertex 2.000000e-01 2.000000e-02 5.100000e-01
    endloop
  endfacet
  facet normal 0.000000e+00 -1.000000e+00 0.000000e+00
    outer loop
      vertex 2.000000e-02 2.000000e-02 4.900000e-01
      vertex 2.000000e-01 2.000000e-02 5.100000e-01
      vertex 2.000000e-02 2.000000e-02 5.100000e-01
    endloop
  endfacet
  facet normal 0.000000e+00 1.000000e+00 0.000000e+00
    outer loop
      vertex 2.000000e-01 4.000000e-02 4.900000e-01
      vertex 2.000000e-02 4.000000e-02 4.900000e-01
      vertex 2.000000e-02 4.000000e-02 5.100000e-01
    endloop
  endfacet
  facet normal 0.000000e+00 1.000000e+00 -0.000000e+00
    outer loop
      vertex 2.000000e-01 4.000000e-02 4.900000e-01
      vertex 2.000000e-02 4.000000e-02 5.100000e-01
      vertex 2.000000e-01 4.000000e-02 5.100000e-01
    endloop
  endfacet
  facet normal -1.000000e+00 0.000000e+00 0.000000e+00
    outer loop
      vertex 2.000000e-02 4.000000e-02 4.900000e-01
      vertex 2.000000e-02 2.000000e-02 4.900000e-01
      vertex 2.000000e-02 2.000000e-02 5.100000e-01
    endloop
  endfacet
  facet normal -1.000000e+00 0.000000e+00 0.000000e+00
    outer loop
      vertex 2.000000e-02 4.000000e-02 4.900000e-01
      vertex 2.000000e-02 2.000000e-02 5.100000e-01
      vertex 2.000000e-02 4.000000e-02 5.100000e-01
    endloop
  endfacet
  facet normal 1.000000e+00 0.000000e+00 0.000000e+00
    outer loop
      vertex 2.000000e-01 2.000000e-02 4.900000e-01
      vertex 2.000000e-01 4.000000e-02 4.900000e-01
      vertex 2.000000e-01 4.000000e-02 5.100000e-01
    endloop
  endfacet
  facet normal 1.000000e+00 0.000000e+00 0.000000e+00
    outer loop
      vertex 2.000000e-01 2.000000e-02 4.900000e-01
      vertex 2.000000e-01 4.000000e-02 5.100000e-01
      vertex 2.000000e-01 2.000000e-02 5.100000e-01
    endloop
  endfacet
endsolid supply_inlet_left
solid supply_inlet_right
  facet normal 0.000000e+00 0.000000e+00 -1.000000e+00
    outer loop
      vertex 2.400000e-01 2.000000e-02 4.900000e-01
      vertex 2.400000e-01 4.000000e-02 4.900000e-01
      vertex 4.200000e-01 4.000000e-02 4.900000e-01
    endloop
  endfacet
  facet normal 0.000000e+00 0.000000e+00 -1.000000e+00
    outer loop
      vertex 2.400000e-01 2.000000e-02 4.900000e-01
      vertex 4.200000e-01 4.000000e-02 4.900000e-01
      vertex 4.200000e-01 2.000000e-02 4.900000e-01
    endloop
  endfacet
  facet normal 0.000000e+00 0.000000e+00 1.000000e+00
    outer loop
      vertex 2.400000e-01 2.000000e-02 5.100000e-01
      vertex 4.200000e-01 2.000000e-02 5.100000e-01
      vertex 4.200000e-01 4.000000e-02 5.100000e-01
    endloop
  endfacet
  facet normal 0.000000e+00 0.000000e+00 1.000000e+00
    outer loop
      vertex 2.400000e-01 2.000000e-02 5.100000e-01
      vertex 4.200000e-01 4.000000e-02 5.100000e-01
      vertex 2.400000e-01 4.000000e-02 5.100000e-01
    endloop
  endfacet
  facet normal 0.000000e+00 -1.000000e+00 0.000000e+00
    outer loop
      vertex 2.400000e-01 2.000000e-02 4.900000e-01
      vertex 4.200000e-01 2.000000e-02 4.900000e-01
      vertex 4.200000e-01 2.000000e-02 5.100000e-01
    endloop
  endfacet
  facet normal 0.000000e+00 -1.000000e+00 0.000000e+00
    outer loop
      vertex 2.400000e-01 2.000000e-02 4.900000e-01
      vertex 4.200000e-01 2.000000e-02 5.100000e-01
      vertex 2.400000e-01 2.000000e-02 5.100000e-01
    endloop
  endfacet
  facet normal 0.000000e+00 1.000000e+00 0.000000e+00
    outer loop
      vertex 4.200000e-01 4.000000e-02 4.900000e-01
      vertex 2.400000e-01 4.000000e-02 4.900000e-01
      vertex 2.400000e-01 4.000000e-02 5.100000e-01
    endloop
  endfacet
  facet normal 0.000000e+00 1.000000e+00 -0.000000e+00
    outer loop
      vertex 4.200000e-01 4.000000e-02 4.900000e-01
      vertex 2.400000e-01 4.000000e-02 5.100000e-01
      vertex 4.200000e-01 4.000000e-02 5.100000e-01
    endloop
  endfacet
  facet normal -1.000000e+00 0.000000e+00 0.000000e+00
    outer loop
      vertex 2.400000e-01 4.000000e-02 4.900000e-01
      vertex 2.400000e-01 2.000000e-02 4.900000e-01
      vertex 2.400000e-01 2.000000e-02 5.100000e-01
    endloop
  endfacet
  facet normal -1.000000e+00 0.000000e+00 0.000000e+00
    outer loop
      vertex 2.400000e-01 4.000000e-02 4.900000e-01
      vertex 2.400000e-01 2.000000e-02 5.100000e-01
      vertex 2.400000e-01 4.000000e-02 5.100000e-01
    endloop
  endfacet
  facet normal 1.000000e+00 0.000000e+00 0.000000e+00
    outer loop
      vertex 4.200000e-01 2.000000e-02 4.900000e-01
      vertex 4.200000e-01 4.000000e-02 4.900000e-01
      vertex 4.200000e-01 4.000000e-02 5.100000e-01
    endloop
  endfacet
  facet normal 1.000000e+00 0.000000e+00 0.000000e+00
    outer loop
      vertex 4.200000e-01 2.000000e-02 4.900000e-01
      vertex 4.200000e-01 4.000000e-02 5.100000e-01
      vertex 4.200000e-01 2.000000e-02 5.100000e-01
    endloop
  endfacet
endsolid supply_inlet_right
solid exhaust_scrubber_duct
  facet normal 0.000000e+00 0.000000e+00 -1.000000e+00
    outer loop
      vertex 5.000000e-02 2.000000e-01 1.000000e-02
      vertex 5.000000e-02 2.330000e-01 1.000000e-02
      vertex 3.900000e-01 2.330000e-01 1.000000e-02
    endloop
  endfacet
  facet normal 0.000000e+00 0.000000e+00 -1.000000e+00
    outer loop
      vertex 5.000000e-02 2.000000e-01 1.000000e-02
      vertex 3.900000e-01 2.330000e-01 1.000000e-02
      vertex 3.900000e-01 2.000000e-01 1.000000e-02
    endloop
  endfacet
  facet normal 0.000000e+00 0.000000e+00 1.000000e+00
    outer loop
      vertex 5.000000e-02 2.000000e-01 3.500000e-02
      vertex 3.900000e-01 2.000000e-01 3.500000e-02
      vertex 3.900000e-01 2.330000e-01 3.500000e-02
    endloop
  endfacet
  facet normal 0.000000e+00 0.000000e+00 1.000000e+00
    outer loop
      vertex 5.000000e-02 2.000000e-01 3.500000e-02
      vertex 3.900000e-01 2.330000e-01 3.500000e-02
      vertex 5.000000e-02 2.330000e-01 3.500000e-02
    endloop
  endfacet
  facet normal 0.000000e+00 -1.000000e+00 0.000000e+00
    outer loop
      vertex 5.000000e-02 2.000000e-01 1.000000e-02
      vertex 3.900000e-01 2.000000e-01 1.000000e-02
      vertex 3.900000e-01 2.000000e-01 3.500000e-02
    endloop
  endfacet
  facet normal 0.000000e+00 -1.000000e+00 0.000000e+00
    outer loop
      vertex 5.000000e-02 2.000000e-01 1.000000e-02
      vertex 3.900000e-01 2.000000e-01 3.500000e-02
      vertex 5.000000e-02 2.000000e-01 3.500000e-02
    endloop
  endfacet
  facet normal 0.000000e+00 1.000000e+00 0.000000e+00
    outer loop
      vertex 3.900000e-01 2.330000e-01 1.000000e-02
      vertex 5.000000e-02 2.330000e-01 1.000000e-02
      vertex 5.000000e-02 2.330000e-01 3.500000e-02
    endloop
  endfacet
  facet normal 0.000000e+00 1.000000e+00 -0.000000e+00
    outer loop
      vertex 3.900000e-01 2.330000e-01 1.000000e-02
      vertex 5.000000e-02 2.330000e-01 3.500000e-02
      vertex 3.900000e-01 2.330000e-01 3.500000e-02
    endloop
  endfacet
  facet normal -1.000000e+00 0.000000e+00 0.000000e+00
    outer loop
      vertex 5.000000e-02 2.330000e-01 1.000000e-02
      vertex 5.000000e-02 2.000000e-01 1.000000e-02
      vertex 5.000000e-02 2.000000e-01 3.500000e-02
    endloop
  endfacet
  facet normal -1.000000e+00 0.000000e+00 0.000000e+00
    outer loop
      vertex 5.000000e-02 2.330000e-01 1.000000e-02
      vertex 5.000000e-02 2.000000e-01 3.500000e-02
      vertex 5.000000e-02 2.330000e-01 3.500000e-02
    endloop
  endfacet
  facet normal 1.000000e+00 0.000000e+00 0.000000e+00
    outer loop
      vertex 3.900000e-01 2.000000e-01 1.000000e-02
      vertex 3.900000e-01 2.330000e-01 1.000000e-02
      vertex 3.900000e-01 2.330000e-01 3.500000e-02
    endloop
  endfacet
  facet normal 1.000000e+00 0.000000e+00 0.000000e+00
    outer loop
      vertex 3.900000e-01 2.000000e-01 1.000000e-02
      vertex 3.900000e-01 2.330000e-01 3.500000e-02
      vertex 3.900000e-01 2.000000e-01 3.500000e-02
    endloop
  endfacet
endsolid exhaust_scrubber_duct
